<svg width="192" height="192" viewBox="0 0 256 256" fill="none" xmlns="http://www.w3.org/2000/svg">
  <!-- Define gradients -->
  <defs>
    <linearGradient id="logoGradient" x1="0%" y1="0%" x2="100%" y2="100%">
      <stop offset="0%" style="stop-color:#667eea;stop-opacity:1" />
      <stop offset="100%" style="stop-color:#764ba2;stop-opacity:1" />
    </linearGradient>
    <linearGradient id="accentGradient" x1="0%" y1="0%" x2="100%" y2="100%">
      <stop offset="0%" style="stop-color:#f093fb;stop-opacity:1" />
      <stop offset="100%" style="stop-color:#f5576c;stop-opacity:1" />
    </linearGradient>
  </defs>

  <!-- Background -->
  <rect width="256" height="256" fill="url(#logoGradient)"/>

  <!-- Main panel shape centered -->
  <rect x="48" y="56" width="160" height="144" rx="16" fill="white" opacity="0.1"/>
  <rect x="48" y="56" width="160" height="144" rx="16" fill="none" stroke="white" stroke-width="3"/>

  <!-- Top section - control indicators -->
  <line x1="56" y1="80" x2="200" y2="80" stroke="white" stroke-width="2" stroke-linecap="round"/>

  <!-- LED indicators - top left -->
  <circle cx="64" cy="72" r="3" fill="#f5576c"/>
  <circle cx="80" cy="72" r="3" fill="white"/>
  <circle cx="96" cy="72" r="3" fill="white" opacity="0.4"/>

  <!-- Grid pattern - server racks -->
  <!-- Row 1 -->
  <rect x="56" y="92" width="32" height="28" rx="4" fill="white" opacity="0.15" stroke="white" stroke-width="1.5"/>
  <rect x="112" y="92" width="32" height="28" rx="4" fill="white" opacity="0.15" stroke="white" stroke-width="1.5"/>
  <rect x="168" y="92" width="32" height="28" rx="4" fill="white" opacity="0.15" stroke="white" stroke-width="1.5"/>

  <!-- Row 2 -->
  <rect x="56" y="130" width="32" height="28" rx="4" fill="white" opacity="0.15" stroke="white" stroke-width="1.5"/>
  <rect x="112" y="130" width="32" height="28" rx="4" fill="white" opacity="0.15" stroke="white" stroke-width="1.5"/>
  <rect x="168" y="130" width="32" height="28" rx="4" fill="white" opacity="0.15" stroke="white" stroke-width="1.5"/>

  <!-- Central accent - power button circle -->
  <circle cx="128" cy="160" r="16" fill="none" stroke="white" stroke-width="2.5"/>
  <circle cx="128" cy="160" r="8" fill="white"/>

  <!-- Top accent line -->
  <line x1="100" y1="56" x2="156" y2="56" stroke="white" stroke-width="3" stroke-linecap="round"/>

  <!-- Subtle connecting lines -->
  <path d="M 128 56 L 128 92" stroke="white" stroke-width="1.5" opacity="0.4" stroke-linecap="round"/>
  <path d="M 128 160 L 128 200" stroke="white" stroke-width="1.5" opacity="0.4" stroke-linecap="round"/>
</svg>
